<?xml version="1.0" encoding="UTF-8" standalone="no"?>
<!-- Created with Inkscape (http://www.inkscape.org/) -->
<svg xmlns:dc="http://purl.org/dc/elements/1.1/" xmlns:cc="http://creativecommons.org/ns#" xmlns:rdf="http://www.w3.org/1999/02/22-rdf-syntax-ns#" xmlns:svg="http://www.w3.org/2000/svg" xmlns="http://www.w3.org/2000/svg" xmlns:xlink="http://www.w3.org/1999/xlink" version="1.1" width="350" height="310" id="svg2">
  <metadata id="metadata8">
    <rdf:RDF>
      <cc:Work rdf:about="">
        <dc:format>image/svg+xml</dc:format>
        <dc:type rdf:resource="http://purl.org/dc/dcmitype/StillImage"/>
        <dc:title/>
      </cc:Work>
    </rdf:RDF>
  </metadata>
  <defs id="defs6">
    <linearGradient id="linearGradient4575">
      <stop id="stop4577" style="stop-color:#000000;stop-opacity:1" offset="0"/>
      <stop id="stop4579" style="stop-color:#000000;stop-opacity:0" offset="1"/>
    </linearGradient>
    <linearGradient id="linearGradient4553">
      <stop id="stop4555" style="stop-color:#000000;stop-opacity:1" offset="0"/>
      <stop id="stop4557" style="stop-color:#000000;stop-opacity:0" offset="1"/>
    </linearGradient>
    <linearGradient id="linearGradient4459">
      <stop id="stop4461" style="stop-color:#ffffff;stop-opacity:0" offset="0"/>
      <stop id="stop4467" style="stop-color:#ffffff;stop-opacity:0.17085427" offset="0.5"/>
      <stop id="stop4463" style="stop-color:#ffffff;stop-opacity:0" offset="1"/>
    </linearGradient>
    <linearGradient id="linearGradient4378">
      <stop id="stop4380" style="stop-color:#000000;stop-opacity:1" offset="0"/>
      <stop id="stop4382" style="stop-color:#000000;stop-opacity:0" offset="1"/>
    </linearGradient>
    <linearGradient id="linearGradient4141">
      <stop id="stop4143" style="stop-color:#552200;stop-opacity:1" offset="0"/>
      <stop id="stop4145" style="stop-color:#552200;stop-opacity:0" offset="1"/>
    </linearGradient>
    <linearGradient id="linearGradient4133">
      <stop id="stop4135" style="stop-color:#552200;stop-opacity:1" offset="0"/>
      <stop id="stop4137" style="stop-color:#552200;stop-opacity:0" offset="1"/>
    </linearGradient>
    <linearGradient id="linearGradient4125">
      <stop id="stop4127" style="stop-color:#552200;stop-opacity:1" offset="0"/>
      <stop id="stop4129" style="stop-color:#552200;stop-opacity:0" offset="1"/>
    </linearGradient>
    <linearGradient id="linearGradient4117">
      <stop id="stop4119" style="stop-color:#552200;stop-opacity:1" offset="0"/>
      <stop id="stop4121" style="stop-color:#552200;stop-opacity:0" offset="1"/>
    </linearGradient>
    <linearGradient id="linearGradient4109">
      <stop id="stop4111" style="stop-color:#552200;stop-opacity:1" offset="0"/>
      <stop id="stop4113" style="stop-color:#552200;stop-opacity:0" offset="1"/>
    </linearGradient>
    <linearGradient id="linearGradient4101">
      <stop id="stop4103" style="stop-color:#552200;stop-opacity:1" offset="0"/>
      <stop id="stop4105" style="stop-color:#552200;stop-opacity:0" offset="1"/>
    </linearGradient>
    <linearGradient id="linearGradient4093">
      <stop id="stop4095" style="stop-color:#552200;stop-opacity:1" offset="0"/>
      <stop id="stop4097" style="stop-color:#552200;stop-opacity:0" offset="1"/>
    </linearGradient>
    <linearGradient id="linearGradient4085">
      <stop id="stop4087" style="stop-color:#552200;stop-opacity:1" offset="0"/>
      <stop id="stop4089" style="stop-color:#552200;stop-opacity:0" offset="1"/>
    </linearGradient>
    <linearGradient id="linearGradient4077">
      <stop id="stop4079" style="stop-color:#552200;stop-opacity:1" offset="0"/>
      <stop id="stop4081" style="stop-color:#552200;stop-opacity:0" offset="1"/>
    </linearGradient>
    <linearGradient id="linearGradient4069">
      <stop id="stop4071" style="stop-color:#552200;stop-opacity:1" offset="0"/>
      <stop id="stop4073" style="stop-color:#552200;stop-opacity:0" offset="1"/>
    </linearGradient>
    <linearGradient id="linearGradient4061">
      <stop id="stop4063" style="stop-color:#552200;stop-opacity:1" offset="0"/>
      <stop id="stop4065" style="stop-color:#552200;stop-opacity:0" offset="1"/>
    </linearGradient>
    <linearGradient id="linearGradient4053">
      <stop id="stop4055" style="stop-color:#552200;stop-opacity:1" offset="0"/>
      <stop id="stop4057" style="stop-color:#552200;stop-opacity:0" offset="1"/>
    </linearGradient>
    <linearGradient id="linearGradient4045">
      <stop id="stop4047" style="stop-color:#552200;stop-opacity:1" offset="0"/>
      <stop id="stop4049" style="stop-color:#552200;stop-opacity:0" offset="1"/>
    </linearGradient>
    <linearGradient id="linearGradient3997">
      <stop id="stop3999" style="stop-color:#d82f2d;stop-opacity:1" offset="0"/>
      <stop id="stop4001" style="stop-color:#d82f2d;stop-opacity:0" offset="1"/>
    </linearGradient>
    <linearGradient id="linearGradient3972">
      <stop id="stop3974" style="stop-color:#cde09e;stop-opacity:1" offset="0"/>
      <stop id="stop3976" style="stop-color:#cde09e;stop-opacity:0" offset="1"/>
    </linearGradient>
    <linearGradient id="linearGradient3109">
      <stop id="stop3111" style="stop-color:#b2c689;stop-opacity:1" offset="0"/>
      <stop id="stop3113" style="stop-color:#decd87;stop-opacity:1" offset="1"/>
    </linearGradient>
    <linearGradient id="linearGradient3092">
      <stop id="stop3094" style="stop-color:#7fa347;stop-opacity:1" offset="0"/>
      <stop id="stop3096" style="stop-color:#7fa347;stop-opacity:0" offset="1"/>
    </linearGradient>
    <linearGradient id="linearGradient3079">
      <stop id="stop3081" style="stop-color:#7fa347;stop-opacity:1" offset="0"/>
      <stop id="stop3083" style="stop-color:#7fa347;stop-opacity:0" offset="1"/>
    </linearGradient>
    <linearGradient id="linearGradient3060">
      <stop id="stop3062" style="stop-color:#121e18;stop-opacity:1" offset="0"/>
      <stop id="stop3068" style="stop-color:#273419;stop-opacity:1" offset="0.5"/>
      <stop id="stop3064" style="stop-color:#283329;stop-opacity:1" offset="1"/>
    </linearGradient>
    <linearGradient id="linearGradient3758">
      <stop id="stop3760" style="stop-color:#75ae49;stop-opacity:1" offset="0"/>
      <stop id="stop3770" style="stop-color:#7bac55;stop-opacity:1" offset="0.18734354"/>
      <stop id="stop3768" style="stop-color:#668935;stop-opacity:1" offset="0.5024913"/>
      <stop id="stop3766" style="stop-color:#8aaf45;stop-opacity:1" offset="0.80548328"/>
      <stop id="stop3762" style="stop-color:#3c6c3a;stop-opacity:1" offset="1"/>
    </linearGradient>
    <linearGradient x1="81.419861" y1="308.07739" x2="184.55397" y2="75.708069" id="linearGradient3952" xlink:href="#linearGradient3060" gradientUnits="userSpaceOnUse" gradientTransform="matrix(0,-0.85679883,0.85679883,0,-10.639837,304.87593)"/>
    <linearGradient x1="-62.508728" y1="60.141129" x2="-193.12891" y2="359.12372" id="linearGradient3955" xlink:href="#linearGradient3758" gradientUnits="userSpaceOnUse" gradientTransform="matrix(0,-0.85679883,0.85679883,0,-9.8165568,57.069205)"/>
    <linearGradient x1="35.496239" y1="-167.84187" x2="32.877445" y2="-8.1728868" id="linearGradient3978" xlink:href="#linearGradient3972" gradientUnits="userSpaceOnUse" gradientTransform="matrix(0.85679883,0,0,0.85679883,169.82439,344.22867)"/>
    <radialGradient cx="196.02699" cy="61.989643" r="14.424205" fx="196.02699" fy="61.989643" id="radialGradient3986" xlink:href="#linearGradient3109" gradientUnits="userSpaceOnUse" gradientTransform="matrix(1.9705917,6.3917188e-8,-3.9267722e-8,1.2106391,-190.26219,-12.914587)"/>
    <linearGradient x1="188.09163" y1="15.49827" x2="195.53842" y2="21.743969" id="linearGradient3988" xlink:href="#linearGradient3079" gradientUnits="userSpaceOnUse"/>
    <linearGradient x1="246.97539" y1="47.25098" x2="189.31477" y2="45.569447" id="linearGradient3990" xlink:href="#linearGradient3092" gradientUnits="userSpaceOnUse"/>
    <linearGradient x1="180.36781" y1="215.81403" x2="205.58342" y2="323.84537" id="linearGradient4003" xlink:href="#linearGradient3997" gradientUnits="userSpaceOnUse" gradientTransform="matrix(0.85679883,0,0,0.85679883,35.93092,2.2556731)"/>
    <linearGradient x1="-40.837265" y1="175.00381" x2="-38.435074" y2="175.00381" id="linearGradient4051" xlink:href="#linearGradient4045" gradientUnits="userSpaceOnUse"/>
    <linearGradient x1="-40.837265" y1="175.00381" x2="-38.435074" y2="175.00381" id="linearGradient4059" xlink:href="#linearGradient4053" gradientUnits="userSpaceOnUse"/>
    <linearGradient x1="-40.837265" y1="175.00381" x2="-38.435074" y2="175.00381" id="linearGradient4067" xlink:href="#linearGradient4061" gradientUnits="userSpaceOnUse"/>
    <linearGradient x1="-40.837265" y1="175.00381" x2="-38.435074" y2="175.00381" id="linearGradient4075" xlink:href="#linearGradient4069" gradientUnits="userSpaceOnUse"/>
    <linearGradient x1="-40.837265" y1="175.00381" x2="-38.435074" y2="175.00381" id="linearGradient4083" xlink:href="#linearGradient4077" gradientUnits="userSpaceOnUse"/>
    <linearGradient x1="-40.837265" y1="175.00381" x2="-38.435074" y2="175.00381" id="linearGradient4091" xlink:href="#linearGradient4085" gradientUnits="userSpaceOnUse"/>
    <linearGradient x1="-40.837265" y1="175.00381" x2="-38.435074" y2="175.00381" id="linearGradient4099" xlink:href="#linearGradient4093" gradientUnits="userSpaceOnUse"/>
    <linearGradient x1="-40.837265" y1="175.00381" x2="-38.435074" y2="175.00381" id="linearGradient4107" xlink:href="#linearGradient4101" gradientUnits="userSpaceOnUse"/>
    <linearGradient x1="-40.837265" y1="175.00381" x2="-38.435074" y2="175.00381" id="linearGradient4115" xlink:href="#linearGradient4109" gradientUnits="userSpaceOnUse"/>
    <linearGradient x1="-40.837265" y1="175.00381" x2="-38.435074" y2="175.00381" id="linearGradient4123" xlink:href="#linearGradient4117" gradientUnits="userSpaceOnUse"/>
    <linearGradient x1="-40.837265" y1="175.00381" x2="-38.435074" y2="175.00381" id="linearGradient4131" xlink:href="#linearGradient4125" gradientUnits="userSpaceOnUse"/>
    <linearGradient x1="-40.837265" y1="175.00381" x2="-38.435074" y2="175.00381" id="linearGradient4139" xlink:href="#linearGradient4133" gradientUnits="userSpaceOnUse"/>
    <linearGradient x1="-40.837265" y1="175.00381" x2="-38.435074" y2="175.00381" id="linearGradient4147" xlink:href="#linearGradient4141" gradientUnits="userSpaceOnUse"/>
    <linearGradient x1="-40.837265" y1="175.00381" x2="-38.435074" y2="175.00381" id="linearGradient4151" xlink:href="#linearGradient4045" gradientUnits="userSpaceOnUse"/>
    <linearGradient x1="-40.837265" y1="175.00381" x2="-38.435074" y2="175.00381" id="linearGradient4155" xlink:href="#linearGradient4045" gradientUnits="userSpaceOnUse"/>
    <radialGradient cx="555.52472" cy="173.92683" r="164.5946" fx="555.52472" fy="173.92683" id="radialGradient4384" xlink:href="#linearGradient4378" gradientUnits="userSpaceOnUse" gradientTransform="matrix(1.0607555,0,0,0.88141933,-414.239,16.112163)"/>
    <filter color-interpolation-filters="sRGB" id="filter4450">
      <feGaussianBlur id="feGaussianBlur4452" stdDeviation="3.0267148"/>
    </filter>
    <linearGradient x1="250.15625" y1="225.125" x2="293.9375" y2="212.125" id="linearGradient4465" xlink:href="#linearGradient4459" gradientUnits="userSpaceOnUse"/>
    <filter x="-0.20842806" y="-0.19975618" width="1.4168561" height="1.3995123" color-interpolation-filters="sRGB" id="filter4547">
      <feGaussianBlur id="feGaussianBlur4549" stdDeviation="8.3585071"/>
    </filter>
    <linearGradient x1="154.22072" y1="247.3098" x2="121.07049" y2="303.04065" id="linearGradient4559" xlink:href="#linearGradient4553" gradientUnits="userSpaceOnUse"/>
    <filter color-interpolation-filters="sRGB" id="filter4569">
      <feGaussianBlur id="feGaussianBlur4571" stdDeviation="1.7429559"/>
    </filter>
    <linearGradient x1="227.7278" y1="276.61652" x2="221.00166" y2="316.97336" id="linearGradient4581" xlink:href="#linearGradient4575" gradientUnits="userSpaceOnUse"/>
    <linearGradient x1="154.22072" y1="247.3098" x2="121.07049" y2="303.04065" id="linearGradient4647" xlink:href="#linearGradient4553" gradientUnits="userSpaceOnUse" gradientTransform="translate(552.50416,14.413152)"/>
    <radialGradient cx="555.52472" cy="173.92683" r="164.5946" fx="555.52472" fy="173.92683" id="radialGradient4649" xlink:href="#linearGradient4378" gradientUnits="userSpaceOnUse" gradientTransform="matrix(1.0607555,0,0,0.88141933,138.26516,30.525315)"/>
    <linearGradient x1="-62.508728" y1="60.141129" x2="-193.12891" y2="359.12372" id="linearGradient4651" xlink:href="#linearGradient3758" gradientUnits="userSpaceOnUse" gradientTransform="matrix(0,-0.85679883,0.85679883,0,542.6876,71.482357)"/>
    <linearGradient x1="81.419861" y1="308.07739" x2="184.55397" y2="75.708069" id="linearGradient4653" xlink:href="#linearGradient3060" gradientUnits="userSpaceOnUse" gradientTransform="matrix(0,-0.85679883,0.85679883,0,541.86432,319.28908)"/>
    <radialGradient cx="196.02699" cy="61.989643" r="14.424205" fx="196.02699" fy="61.989643" id="radialGradient4655" xlink:href="#linearGradient3109" gradientUnits="userSpaceOnUse" gradientTransform="matrix(1.9705917,6.3917188e-8,-3.9267722e-8,1.2106391,-190.26219,-12.914587)"/>
    <linearGradient x1="188.09163" y1="15.49827" x2="195.53842" y2="21.743969" id="linearGradient4657" xlink:href="#linearGradient3079" gradientUnits="userSpaceOnUse"/>
    <linearGradient x1="246.97539" y1="47.25098" x2="189.31477" y2="45.569447" id="linearGradient4659" xlink:href="#linearGradient3092" gradientUnits="userSpaceOnUse"/>
    <linearGradient x1="180.36781" y1="215.81403" x2="205.58342" y2="323.84537" id="linearGradient4661" xlink:href="#linearGradient3997" gradientUnits="userSpaceOnUse" gradientTransform="matrix(0.85679883,0,0,0.85679883,588.43508,16.668825)"/>
    <linearGradient x1="-40.837265" y1="175.00381" x2="-38.435074" y2="175.00381" id="linearGradient4663" xlink:href="#linearGradient4117" gradientUnits="userSpaceOnUse"/>
    <linearGradient x1="-40.837265" y1="175.00381" x2="-38.435074" y2="175.00381" id="linearGradient4665" xlink:href="#linearGradient4109" gradientUnits="userSpaceOnUse"/>
    <linearGradient x1="-40.837265" y1="175.00381" x2="-38.435074" y2="175.00381" id="linearGradient4667" xlink:href="#linearGradient4077" gradientUnits="userSpaceOnUse"/>
    <linearGradient x1="-40.837265" y1="175.00381" x2="-38.435074" y2="175.00381" id="linearGradient4669" xlink:href="#linearGradient4069" gradientUnits="userSpaceOnUse"/>
    <linearGradient x1="-40.837265" y1="175.00381" x2="-38.435074" y2="175.00381" id="linearGradient4671" xlink:href="#linearGradient4053" gradientUnits="userSpaceOnUse"/>
    <linearGradient x1="-40.837265" y1="175.00381" x2="-38.435074" y2="175.00381" id="linearGradient4673" xlink:href="#linearGradient4141" gradientUnits="userSpaceOnUse"/>
    <linearGradient x1="-40.837265" y1="175.00381" x2="-38.435074" y2="175.00381" id="linearGradient4675" xlink:href="#linearGradient4085" gradientUnits="userSpaceOnUse"/>
    <linearGradient x1="-40.837265" y1="175.00381" x2="-38.435074" y2="175.00381" id="linearGradient4677" xlink:href="#linearGradient4045" gradientUnits="userSpaceOnUse"/>
    <linearGradient x1="-40.837265" y1="175.00381" x2="-38.435074" y2="175.00381" id="linearGradient4679" xlink:href="#linearGradient4061" gradientUnits="userSpaceOnUse"/>
    <linearGradient x1="-40.837265" y1="175.00381" x2="-38.435074" y2="175.00381" id="linearGradient4681" xlink:href="#linearGradient4093" gradientUnits="userSpaceOnUse"/>
    <linearGradient x1="-40.837265" y1="175.00381" x2="-38.435074" y2="175.00381" id="linearGradient4683" xlink:href="#linearGradient4101" gradientUnits="userSpaceOnUse"/>
    <linearGradient x1="-40.837265" y1="175.00381" x2="-38.435074" y2="175.00381" id="linearGradient4685" xlink:href="#linearGradient4125" gradientUnits="userSpaceOnUse"/>
    <linearGradient x1="-40.837265" y1="175.00381" x2="-38.435074" y2="175.00381" id="linearGradient4687" xlink:href="#linearGradient4133" gradientUnits="userSpaceOnUse"/>
    <linearGradient x1="-40.837265" y1="175.00381" x2="-38.435074" y2="175.00381" id="linearGradient4689" xlink:href="#linearGradient4045" gradientUnits="userSpaceOnUse"/>
    <linearGradient x1="-40.837265" y1="175.00381" x2="-38.435074" y2="175.00381" id="linearGradient4691" xlink:href="#linearGradient4045" gradientUnits="userSpaceOnUse"/>
    <linearGradient x1="250.15625" y1="225.125" x2="293.9375" y2="212.125" id="linearGradient4693" xlink:href="#linearGradient4459" gradientUnits="userSpaceOnUse" gradientTransform="translate(552.50416,14.413152)"/>
    <linearGradient x1="35.496239" y1="-167.84187" x2="32.877445" y2="-8.1728868" id="linearGradient4695" xlink:href="#linearGradient3972" gradientUnits="userSpaceOnUse" gradientTransform="matrix(0.85679883,0,0,0.85679883,722.32855,358.64182)"/>
    <radialGradient cx="196.02699" cy="61.989643" r="14.424205" fx="196.02699" fy="61.989643" id="radialGradient4702" xlink:href="#linearGradient3109" gradientUnits="userSpaceOnUse" gradientTransform="matrix(5.4764172e-8,-1.6884007,1.0372742,3.3644538e-8,530.79912,482.3055)"/>
    <linearGradient x1="188.09163" y1="15.49827" x2="195.53842" y2="21.743969" id="linearGradient4704" xlink:href="#linearGradient3079" gradientUnits="userSpaceOnUse"/>
    <linearGradient x1="246.97539" y1="47.25098" x2="189.31477" y2="45.569447" id="linearGradient4706" xlink:href="#linearGradient3092" gradientUnits="userSpaceOnUse"/>
    <linearGradient x1="246.97539" y1="47.25098" x2="189.31477" y2="45.569447" id="linearGradient4709" xlink:href="#linearGradient3092" gradientUnits="userSpaceOnUse" gradientTransform="matrix(0,-0.61197187,0.61197187,0,557.77733,270.68376)"/>
    <linearGradient x1="188.09163" y1="15.49827" x2="195.53842" y2="21.743969" id="linearGradient4712" xlink:href="#linearGradient3079" gradientUnits="userSpaceOnUse" gradientTransform="matrix(0,-0.61197187,0.61197187,0,557.77733,270.68376)"/>
    <linearGradient x1="154.22072" y1="247.3098" x2="121.07049" y2="303.04065" id="linearGradient4716" xlink:href="#linearGradient4553" gradientUnits="userSpaceOnUse" gradientTransform="translate(-1.7652562,6.7261377)"/>
    <filter color-interpolation-filters="sRGB" id="filter4722">
      <feGaussianBlur id="feGaussianBlur4724" stdDeviation="4.5401175"/>
    </filter>
    <linearGradient x1="154.22072" y1="247.3098" x2="121.07049" y2="303.04065" id="linearGradient4761" xlink:href="#linearGradient4553" gradientUnits="userSpaceOnUse" gradientTransform="translate(-1.7652562,6.7261377)"/>
    <linearGradient x1="154.22072" y1="247.3098" x2="121.07049" y2="303.04065" id="linearGradient4763" xlink:href="#linearGradient4553" gradientUnits="userSpaceOnUse"/>
    <radialGradient cx="555.52472" cy="173.92683" r="164.5946" fx="555.52472" fy="173.92683" id="radialGradient4765" xlink:href="#linearGradient4378" gradientUnits="userSpaceOnUse" gradientTransform="matrix(1.0607555,0,0,0.88141933,-414.239,16.112163)"/>
    <linearGradient x1="-62.508728" y1="60.141129" x2="-193.12891" y2="359.12372" id="linearGradient4767" xlink:href="#linearGradient3758" gradientUnits="userSpaceOnUse" gradientTransform="matrix(0,-0.85679883,0.85679883,0,-9.8165568,57.069205)"/>
    <linearGradient x1="81.419861" y1="308.07739" x2="184.55397" y2="75.708069" id="linearGradient4769" xlink:href="#linearGradient3060" gradientUnits="userSpaceOnUse" gradientTransform="matrix(0,-0.85679883,0.85679883,0,-10.639837,304.87593)"/>
    <radialGradient cx="196.02699" cy="61.989643" r="14.424205" fx="196.02699" fy="61.989643" id="radialGradient4771" xlink:href="#linearGradient3109" gradientUnits="userSpaceOnUse" gradientTransform="matrix(1.9705917,6.3917188e-8,-3.9267722e-8,1.2106391,-190.26219,-12.914587)"/>
    <linearGradient x1="188.09163" y1="15.49827" x2="195.53842" y2="21.743969" id="linearGradient4773" xlink:href="#linearGradient3079" gradientUnits="userSpaceOnUse"/>
    <linearGradient x1="246.97539" y1="47.25098" x2="189.31477" y2="45.569447" id="linearGradient4775" xlink:href="#linearGradient3092" gradientUnits="userSpaceOnUse"/>
    <linearGradient x1="180.36781" y1="215.81403" x2="205.58342" y2="323.84537" id="linearGradient4777" xlink:href="#linearGradient3997" gradientUnits="userSpaceOnUse" gradientTransform="matrix(0.85679883,0,0,0.85679883,35.93092,2.2556731)"/>
    <linearGradient x1="-40.837265" y1="175.00381" x2="-38.435074" y2="175.00381" id="linearGradient4779" xlink:href="#linearGradient4117" gradientUnits="userSpaceOnUse"/>
    <linearGradient x1="-40.837265" y1="175.00381" x2="-38.435074" y2="175.00381" id="linearGradient4781" xlink:href="#linearGradient4109" gradientUnits="userSpaceOnUse"/>
    <linearGradient x1="-40.837265" y1="175.00381" x2="-38.435074" y2="175.00381" id="linearGradient4783" xlink:href="#linearGradient4077" gradientUnits="userSpaceOnUse"/>
    <linearGradient x1="-40.837265" y1="175.00381" x2="-38.435074" y2="175.00381" id="linearGradient4785" xlink:href="#linearGradient4069" gradientUnits="userSpaceOnUse"/>
    <linearGradient x1="-40.837265" y1="175.00381" x2="-38.435074" y2="175.00381" id="linearGradient4787" xlink:href="#linearGradient4053" gradientUnits="userSpaceOnUse"/>
    <linearGradient x1="-40.837265" y1="175.00381" x2="-38.435074" y2="175.00381" id="linearGradient4789" xlink:href="#linearGradient4141" gradientUnits="userSpaceOnUse"/>
    <linearGradient x1="-40.837265" y1="175.00381" x2="-38.435074" y2="175.00381" id="linearGradient4791" xlink:href="#linearGradient4085" gradientUnits="userSpaceOnUse"/>
    <linearGradient x1="-40.837265" y1="175.00381" x2="-38.435074" y2="175.00381" id="linearGradient4793" xlink:href="#linearGradient4045" gradientUnits="userSpaceOnUse"/>
    <linearGradient x1="-40.837265" y1="175.00381" x2="-38.435074" y2="175.00381" id="linearGradient4795" xlink:href="#linearGradient4061" gradientUnits="userSpaceOnUse"/>
    <linearGradient x1="-40.837265" y1="175.00381" x2="-38.435074" y2="175.00381" id="linearGradient4797" xlink:href="#linearGradient4093" gradientUnits="userSpaceOnUse"/>
    <linearGradient x1="-40.837265" y1="175.00381" x2="-38.435074" y2="175.00381" id="linearGradient4799" xlink:href="#linearGradient4101" gradientUnits="userSpaceOnUse"/>
    <linearGradient x1="-40.837265" y1="175.00381" x2="-38.435074" y2="175.00381" id="linearGradient4801" xlink:href="#linearGradient4125" gradientUnits="userSpaceOnUse"/>
    <linearGradient x1="-40.837265" y1="175.00381" x2="-38.435074" y2="175.00381" id="linearGradient4803" xlink:href="#linearGradient4133" gradientUnits="userSpaceOnUse"/>
    <linearGradient x1="-40.837265" y1="175.00381" x2="-38.435074" y2="175.00381" id="linearGradient4805" xlink:href="#linearGradient4045" gradientUnits="userSpaceOnUse"/>
    <linearGradient x1="-40.837265" y1="175.00381" x2="-38.435074" y2="175.00381" id="linearGradient4807" xlink:href="#linearGradient4045" gradientUnits="userSpaceOnUse"/>
    <linearGradient x1="250.15625" y1="225.125" x2="293.9375" y2="212.125" id="linearGradient4809" xlink:href="#linearGradient4459" gradientUnits="userSpaceOnUse"/>
    <linearGradient x1="35.496239" y1="-167.84187" x2="32.877445" y2="-8.1728868" id="linearGradient4811" xlink:href="#linearGradient3972" gradientUnits="userSpaceOnUse" gradientTransform="matrix(0.85679883,0,0,0.85679883,169.82439,344.22867)"/>
  </defs>
  <g transform="matrix(0.99720278,0,0,0.99720278,2.1981902,-19.107511)" id="g4726">
    <path d="m 155.98058,38.062986 c -1.05815,0.0042 -2.09739,0.02975 -3.15625,0.0625 -47.29337,0.591314 -91.994926,30.891608 -110.499996,74.218754 -2.83597,6.62009 -5.2601,13.433 -6.84375,20.46875 -1.22129,-5.329 -7.7438,-6.64346 -11.65625,-3.28125 -6.89018,4.55657 -12.11393,11.87574 -15.1250002,19.3125 -0.25622,4.02172 6.2079702,7.10881 7.8437502,2.625 3.96028,-3.38338 7.18953,-8.20843 11.46875,-10.84375 1.66864,2.4382 6.74708,2.69388 4.875,6.34375 -0.36484,3.98464 -1.18692,7.37387 -0.75,10.125 -2.32943,46.65581 24.58425,92.6458 65.875,113.96875 5.033886,2.82195 10.362056,5.01757 15.812496,6.90625 12.38049,9.65655 27.29558,16.80897 44.375,22 16.47453,8.2571 34.77016,12.89426 53.28125,13.59375 24.25124,2.18898 49.63716,-0.77941 70.78125,-13.40625 21.60789,-11.70721 38.52748,-31.10706 47.3125,-54 8.70868,-20.53592 9.53758,-43.46849 7.15625,-65.53125 -8.38333,3.97087 -17.32479,9.12983 -27.25,9.65625 -7.83438,1.40325 -16.05703,-0.23098 -23.5625,2.9375 -3.08661,0.70221 -6.1347,1.16427 -9.28125,1.28125 9.87933,-42.06608 -1.9969,-88.88453 -32.71875,-119.500004 -22.81568,-23.529325 -55.13495,-37.067533 -87.9375,-36.9375 z" id="path4583" style="opacity:0.5;fill:url(#linearGradient4761);stroke:none;filter:url(#filter4722)"/>
    <path d="M 95.108374,249.60075 C 118.23084,248.88057 237.81701,244.9076 237.81701,244.9076 l 30.74805,53.8091 -47.5634,5.12833 C 163.85108,299.28649 119.31172,284.88871 95.108374,249.60075 z" id="path4551" style="fill:url(#linearGradient4763);stroke:none;filter:url(#filter4569)"/>
    <path d="m 154.5747,31.394055 c -47.29337,0.591314 -91.994927,30.891611 -110.499997,74.218755 -2.83597,6.62009 -5.2601,13.433 -6.84375,20.46875 -1.22129,-5.329 -7.7438,-6.64346 -11.65625,-3.28125 -6.89018,4.55657 -12.11393,11.87574 -15.125,19.3125 -0.25622,4.02172 6.21238,7.10557 7.84816,2.62176 3.96028,-3.38338 7.18512,-8.20519 11.46434,-10.84051 1.66864,2.4382 6.74708,2.69388 4.875,6.34375 -0.36484,3.98464 -1.18692,7.37387 -0.75,10.125 -2.32943,46.65581 24.58425,92.6458 65.875,113.96875 11.153127,6.25234 23.791927,9.53476 35.863507,12.85709 21.59098,18.34237 49.32663,28.57433 77.60524,29.64291 24.25124,2.18898 49.64295,-0.76836 70.78704,-13.3952 21.60789,-11.70721 38.52169,-31.11811 47.30671,-54.01105 8.70868,-20.53592 9.53758,-43.46849 7.15625,-65.53125 -8.38333,3.97087 -17.32479,9.12983 -27.25,9.65625 -7.83438,1.40325 -16.05703,-0.23098 -23.5625,2.9375 -3.08661,0.70221 -6.1347,1.16427 -9.28125,1.28125 9.87933,-42.06608 -1.98027,-88.885425 -32.70212,-119.500888 -23.55167,-24.288336 -57.227,-37.92201 -91.11038,-36.874117 z" id="path4257" style="fill:url(#radialGradient4765);fill-opacity:1;stroke:none;filter:url(#filter4450)"/>
    <path d="m 156.38601,33.783375 c 67.35637,0 120.92128,54.48083 121.9595,121.668425 1.1643,75.34566 -54.60313,121.66844 -121.9595,121.66844 -67.356367,0 -121.959505,-54.47282 -121.959505,-121.66844 0,-67.195614 54.603138,-121.668425 121.959505,-121.668425 z" id="path2987" style="fill:url(#linearGradient4767);fill-opacity:1;stroke:none"/>
    <path d="m 35.011475,143.44967 c 4.148963,-5.79376 1.852451,-9.21544 0.615825,-5.03369 -0.234069,1.66604 -0.450111,3.34671 -0.615825,5.03369 z m 3.320096,10.12094 c 0.676931,14.86633 4.214131,29.32424 11.299035,42.43832 5.594056,14.18361 11.235845,27.66775 21.41997,39.09144 11.19023,10.45951 22.871234,21.43806 37.056554,27.84596 14.21552,6.37361 29.22732,12.29979 45.14258,11.78099 2.41277,1.42435 5.00578,2.08434 7.68442,2.30264 3.23056,-0.10068 6.41898,-0.3023 9.58544,-0.61582 4.31886,-0.69439 8.66598,-1.67319 12.7181,-1.84747 0.0258,-0.005 0.0545,0.005 0.0803,0 1.81243,-0.35422 3.59958,-0.77906 5.38177,-1.20488 2.98961,-1.21699 3.52083,-2.75252 -3.45397,-1.71359 -17.73195,-0.40053 -36.54822,3.15592 -53.12153,-4.89982 -4.48232,-1.10684 -2.3528,-7.6025 -9.79963,-5.78339 -13.05895,0.90115 -22.551806,-8.62059 -32.103203,-15.87756 -12.99278,-7.8192 -24.219732,-18.783 -31.139282,-32.42448 -5.302274,-10.9986 -8.453563,-23.33934 -13.387482,-34.27195 -0.312791,-4.33574 -2.7814,-7.33312 -3.320095,-11.67389 -3.225694,-3.33625 -1.999717,-22.35921 -4.04302,-13.1465 z m 4.551744,-34.11131 c 6.429787,-5.63278 8.044664,-14.69524 11.914858,-22.517742 1.773343,-5.983412 5.056998,-11.06873 9.531887,-15.395607 6.126043,-7.845921 13.413263,-14.51777 21.205771,-20.670271 4.924049,-3.386001 8.495298,-9.04448 14.753009,-9.853187 10.28857,-2.590994 20.37443,-6.462542 30.7912,-8.246689 14.55971,-0.293342 29.13975,-1.639467 43.66997,-1.231648 12.27598,1.629237 24.76116,2.054844 36.73525,5.435318 -0.35286,-0.185669 -0.7164,-0.353841 -1.071,-0.5355 -0.34802,-0.173664 -0.69429,-0.365107 -1.04422,-0.535499 -0.0967,-0.04824 -0.1977,-0.08593 -0.29453,-0.133875 -12.95054,-6.263088 -27.20201,-10.263704 -42.27766,-11.540009 -0.0809,-0.0069 -0.16009,-0.02039 -0.24098,-0.02673 -0.78006,-0.06109 -1.54824,-0.114417 -2.32942,-0.16065 -0.78118,-0.04627 -1.5742,-0.102482 -2.3562,-0.133875 -17.68248,-0.70978 -35.53787,2.395404 -51.94343,9.023163 -0.28134,0.115745 -0.57651,0.203515 -0.8568,0.3213 -0.0557,0.02296 -0.10497,0.05723 -0.16064,0.08028 -13.649308,5.759384 -26.026821,13.948179 -36.601381,23.990367 -0.02262,0.02211 -0.05775,0.03144 -0.08028,0.05355 -0.09167,0.08719 -0.176355,0.180279 -0.267749,0.267749 -3.753953,3.773385 -7.468681,7.745162 -10.924185,11.941634 -0.199335,0.249012 -0.391643,0.499094 -0.58905,0.749699 -4.023229,5.107309 -7.642973,10.53395 -10.817087,16.252406 -3.2141,6.300336 -5.491763,13.022826 -6.318891,20.215096 z m 3.132671,37.9669 c 3.700077,11.20594 3.406529,23.79156 8.460888,34.16486 3.318544,5.30517 8.088104,10.59017 10.442236,16.19885 8.801337,9.48111 22.304778,13.07316 30.255708,23.74939 9.603672,13.79713 27.235512,15.62799 41.902812,20.99157 5.61269,3.54898 30.29444,-1.33805 18.79603,9.55866 -3.52783,3.76388 17.55591,0.28569 23.16034,0.77648 17.53557,-1.19242 34.99327,-4.27357 51.99698,-8.46089 1.46107,-1.03831 2.90294,-2.10807 4.31077,-3.213 1.15987,-1.36541 -0.54149,-1.42004 -5.48887,0.83003 -10.3907,0.0134 -21.0924,1.58398 -31.19283,3.64139 -9.45802,2.89651 -19.36513,4.37097 -25.06136,-4.55174 -11.26005,-4.46467 -24.09212,-0.98549 -35.20908,-6.77407 -13.16995,-1.73078 -19.2288,-13.3053 -32.21028,-15.44915 C 98.166134,223.20462 85.702642,220.33553 82.61736,209.90513 75.188812,201.70792 66.322229,192.33187 58.171819,183.18372 53.498264,175.1674 53.600386,163.69426 46.015986,157.4262 z m 0.883573,-15.10108 c 5.196459,12.6752 15.537559,-4.98442 24.981041,2.27588 6.606716,5.0589 7.011236,13.9426 17.671476,14.45848 8.937885,3.22617 28.755184,5.76283 25.034594,18.31407 1.60996,0.1749 3.10362,0.5735 4.41787,1.15132 8.85938,-8.79907 12.7403,14.85483 22.14289,5.86372 6.60953,-2.8975 25.49264,1.5626 27.23014,8.80896 -5.82198,9.63179 10.52563,-7.1052 15.52948,-0.40162 11.35908,-2.21447 2.39734,20.71271 11.51323,9.18381 6.2921,-11.02464 20.09226,-11.26781 29.31859,-5.59597 12.20207,2.33516 24.91103,-3.36265 35.63747,3.213 3.20828,2.01327 6.43957,3.7564 9.45156,5.19434 1.25587,-3.19028 2.38191,-6.45269 3.37365,-9.82641 -1.45507,-1.12717 -3.0592,-2.3069 -4.81949,-3.58784 -9.64015,-1.47284 -19.22785,-16.28704 -28.38146,-7.52377 -12.0954,5.68137 -28.42748,-1.06835 -29.88086,-12.82521 -12.82964,-0.53388 -22.60305,7.78582 -32.90643,12.07551 -9.2567,-1.35304 -9.47599,-24.11751 -19.8938,-16.54692 -10.53469,1.68974 -12.86341,-18.86925 -20.4293,-7.0686 -12.06794,-5.0807 -27.00956,-4.99316 -36.84235,-14.05685 -11.493466,2.37596 -26.12574,-6.88837 -39.17177,-7.17569 -3.649655,2.49699 -12.645331,1.42313 -13.976531,4.06979 z m 0.08028,6.82762 c 0,0 2.357782,4.55767 4.09657,6.39922 2.277208,2.41178 8.059264,5.83694 8.059264,5.83694 2.574886,10.20574 8.169362,19.55424 17.403726,24.98104 4.615884,10.74277 19.902648,14.16652 26.105591,21.90192 11.33451,0.0237 25.3233,7.13968 25.43621,17.13597 9.43124,4.35715 19.87217,-2.6368 27.23014,7.89862 4.40795,5.29436 12.22904,3.36248 13.73556,-3.34687 7.32036,12.66494 27.482,-8.69911 29.82731,10.84386 5.13989,-14.2924 22.34877,-9.75346 34.80745,-10.60289 6.22093,-0.94459 16.3506,-0.66477 24.01714,-2.67749 1.97989,-2.8486 3.8462,-5.82122 5.5692,-8.88929 -2.49395,-2.03685 -6.99319,-4.48956 -16.92178,-3.02557 -8.75014,11.22122 -26.72009,0.30497 -37.35108,7.12214 -5.73856,-2.72096 -11.05257,-7.88748 -16.5737,-6.96149 -10.89994,-5.47202 -22.19845,8.21816 -33.97743,1.1781 -10.69452,-6.68537 -21.56465,-10.47939 -33.6829,-12.34326 -5.65717,-2.10326 -11.48162,-6.73302 -13.41426,-11.75421 -3.15619,-0.25922 -5.89888,-1.39534 -7.73796,-3.02557 -5.764117,1.80073 -12.399484,-0.38903 -16.97533,-6.82762 -11.173291,-9.13358 -8.49498,-22.61346 -17.805351,-29.18471 -5.021004,-3.54382 -18.046325,-3.77527 -18.046325,-3.77527 z m 1.767148,-30.33603 c 7.956217,-12.50065 17.179476,-24.7438 30.095059,-32.42449 7.701636,-8.386698 19.446069,-11.581838 28.836634,-15.957878 7.41528,-8.674583 20.61615,-3.395957 26.72141,-1.901023 9.81539,-12.314178 25.44351,-15.056808 39.17178,-9.665762 12.24376,-1.93927 23.21257,5.208044 35.5036,5.836942 11.95542,1.825522 30.27043,5.691518 40.08212,12.878758 0.31291,0.147138 0.53792,0.232775 0.80325,0.348074 -2.50641,-3.035244 -5.17148,-5.951864 -7.95217,-8.728638 -1.02988,-0.709104 -1.96561,-1.320078 -2.54362,-1.606498 -12.99953,-6.808226 -34.59944,-13.3973 -48.89108,-14.056855 -12.02637,-6.977744 -23.47702,-2.093588 -36.1462,-1.097774 -12.98977,2.971241 -26.83712,2.791528 -38.55595,9.879962 -6.11762,3.917472 -16.098307,0.879264 -6.47954,-4.739169 5.10218,-3.063595 10.386,-10.661653 0.58905,-4.873043 C 98.48393,56.730907 90.187992,65.208117 83.367017,74.771886 74.518264,87.91877 59.788341,96.3528 53.245183,111.21262 z m 2.516846,9.77286 c 9.454039,0.46231 18.54679,-3.80823 23.963593,4.23044 11.18843,-0.81289 3.212181,-22.98136 16.011428,-11.94163 8.142408,4.72558 13.384396,15.28165 24.070696,8.80896 6.82633,-4.50074 11.20587,9.9288 14.29783,-0.9639 7.26273,-7.32865 18.82887,5.73179 28.86341,3.61462 9.0706,5.22917 21.56552,-4.84528 25.91816,7.68442 13.15552,-5.43462 26.9006,0.16563 37.3243,6.13146 4.93427,12.30154 11.64678,-5.53359 19.38508,2.8917 7.89788,7.59051 27.07302,8.78829 37.08332,15.47593 0.13875,-2.97443 0.20813,-6.00461 0.16065,-9.07671 -0.0578,-3.743 -0.29219,-7.42795 -0.66937,-11.08484 -9.193,-5.23905 -30.51187,-6.44109 -34.62003,-15.63658 -1.90372,-9.287 -19.05067,5.27523 -22.4642,-10.09416 -6.75101,12.096 -19.14397,-0.65631 -28.11371,1.52617 -5.71445,-10.32892 -8.77292,-0.78308 -11.27226,2.11523 -7.37637,-11.14598 -18.09241,-7.34671 -29.58633,-9.69254 -11.86441,2.79772 -23.16511,-2.86609 -34.24518,-2.70427 -2.89945,5.59788 -11.81259,9.13986 -15.02075,1.6065 -10.752823,11.91637 -28.321757,-5.33575 -39.626952,8.03248 -4.574021,1.79709 -9.658385,4.10132 -11.459685,9.07672 z m 5.890492,-14.61913 c 8.86289,-7.05857 21.21888,-2.96735 29.639885,-10.95096 10.293307,-4.996959 21.04628,-10.435841 33.28128,-8.755418 14.21447,3.277324 20.77998,-14.73756 35.02165,-8.675091 10.88626,1.153011 15.92105,18.382449 27.04272,7.470217 9.59286,-6.878966 19.51709,14.991112 25.73074,-1.820697 2.40542,-8.431374 8.38427,-2.79291 13.11973,-0.16065 4.48064,3.409931 11.71906,4.38041 13.06618,10.602889 1.57551,15.10641 17.92993,-4.262946 21.74127,11.00451 0.67724,5.3483 12.93679,16.01395 19.1441,15.58303 -1.04518,-4.4081 -2.30637,-8.72083 -3.80204,-12.93231 -8.8135,-10.77861 -22.57674,-19.334953 -31.99609,-28.140491 -12.41721,1.159446 -22.69958,-6.088867 -33.01353,-12.262933 -8.27974,0.177451 -20.11882,-9.191653 -20.32219,4.712393 -8.35048,5.515283 -18.38462,8.326071 -24.68652,-2.463297 -11.26211,-11.002385 -20.54191,10.92063 -33.20096,10.415461 -10.57624,3.517059 -21.14452,-0.44874 -31.674778,5.38177 -9.988715,6.387775 -21.395509,10.600687 -32.69223,13.682007 -2.975431,1.47454 -5.448101,4.08704 -6.399217,7.30957 z" id="path3776" style="fill:url(#linearGradient4769)"/>
    <g transform="matrix(0,-0.85679883,0.85679883,0,-10.639837,304.87593)" id="g3117">
      <path d="m 181.6054,61.644522 c 0.0985,2.465628 2.31788,4.557887 4.30279,6.023888 2.189,1.616738 5.09359,1.96882 7.745,2.581667 4.22934,0.977573 8.95386,3.511414 12.90833,1.721111 1.8844,-0.853121 2.8428,-3.18357 3.44222,-5.163333 0.41563,-1.372718 0.75404,-3.082724 0,-4.302778 -2.3605,-3.819373 -7.64789,-5.129172 -12.04778,-6.023889 -4.50636,-0.916366 -9.83985,-1.528929 -13.76889,0.860556 -1.42909,0.869115 -2.64841,2.631491 -2.58167,4.302778 z" id="path3070" style="fill:url(#radialGradient4771);fill-opacity:1;stroke:none"/>
      <g transform="matrix(0.71425386,0,0,0.71425386,56.728981,18.572633)" id="g3100">
        <path d="m 189.76413,60.269536 c 0,0 2.69578,3.330067 4.59243,4.13205 2.21901,0.938288 7.21128,0.486794 7.21128,0.486794 0,0 2.10842,-10.593956 5.13206,-14.882944 2.52456,-3.581063 9.26644,-3.944888 10.2641,-8.21128 1.28954,-5.514602 -3.59157,-11.018716 -7.18488,-15.39615 C 203.72226,19.019412 186.6849,9.462242 186.6849,9.462242 c 0,0 -2.26595,-0.02668 -3.14652,0.574421 -1.30882,0.893436 -2.49874,4.044423 -2.49874,4.044423 0,0 9.51591,8.975307 13.85654,13.856535 2.75183,3.094562 7.53188,5.613105 7.69808,9.750895 0.099,2.465195 -2.84105,4.040016 -4.10564,6.15846 -3.17724,5.322524 -8.72449,16.42256 -8.72449,16.42256 z" id="path3072" style="fill:#a5bc6e;fill-opacity:1;stroke:none"/>
        <path d="m 186.3125,9.46875 c -0.67858,0.020673 -2.12082,0.1116743 -2.78125,0.5625 -1.30882,0.893436 -2.5,4.0625 -2.5,4.0625 0,0 5.8242,5.459645 10.4375,10.1875 l 10.125,-5.1875 c -6.9666,-5.174773 -14.90625,-9.625 -14.90625,-9.625 0,0 -0.14881,-0.00689 -0.375,0 z" id="path3074" style="fill:url(#linearGradient4773);fill-opacity:1;stroke:none"/>
        <path d="m 202.6875,19.90625 c 1.51499,1.863761 6.48204,8.061596 8.71875,11.9375 1.39793,2.422411 3.7968,4.927605 3.34375,7.6875 -0.38564,2.3493 -2.97137,3.771885 -4.8125,5.28125 -2.52753,2.072076 -6.49173,2.382386 -8.40625,5.03125 -1.92312,2.660763 -1.1832,6.489519 -2.15625,9.625 -0.51864,1.671237 -1.44417,3.891441 -2.125,5.46875 2.12719,0.140277 4.3125,-0.0625 4.3125,-0.0625 0,0 2.10136,-10.586012 5.125,-14.875 2.52456,-3.581063 9.28359,-3.952358 10.28125,-8.21875 1.28954,-5.514602 -3.59419,-10.997566 -7.1875,-15.375 -1.70349,-2.07523 -4.27643,-4.341202 -7.09375,-6.5 z" id="path3087" style="fill:url(#linearGradient4775);fill-opacity:1;stroke:none"/>
      </g>
    </g>
    <path d="m 103.13887,206.23022 c 2.21746,7.6527 3.97595,15.52987 6.47728,23.04373 10.19007,13.58678 20.38015,27.17355 30.57023,40.76032 16.32835,6.58622 32.6567,13.17245 48.98505,19.75867 27.03096,-0.82328 54.06193,-1.64655 81.09289,-2.46983 16.05392,-15.36786 32.10785,-30.73572 48.16177,-46.10358 4.11639,-20.0331 8.23278,-40.06619 12.34917,-60.09929 -11.96194,3.88515 -24.47721,6.21571 -37.09896,5.66003 -8.70162,3.25075 -18.03398,4.34395 -27.21963,2.77857 -9.16641,0.63592 -18.17646,2.2542 -27.21964,3.77856 -11.93207,0.37451 -23.94998,0.70986 -35.64234,3.40752 -10.03782,1.70119 -20.27601,0.72582 -30.34025,2.32794 -9.19476,0.81315 -18.34435,1.86328 -27.38567,3.75326 -9.34583,0.80725 -18.74715,0.52822 -28.05737,1.90634 -4.89084,0.49925 -9.78169,0.99851 -14.67253,1.49776 z" id="path3984" style="fill:#bd1c17;fill-opacity:1;stroke:none"/>
    <path d="m 322.0625,183.625 c -9.26751,2.3243 -18.78889,3.57828 -28.375,3.15625 -8.70162,3.25075 -18.0331,4.34663 -27.21875,2.78125 -9.16641,0.63592 -18.17557,2.25689 -27.21875,3.78125 -11.93207,0.37451 -23.96389,0.70859 -35.65625,3.40625 -10.03782,1.70119 -20.27951,0.71038 -30.34375,2.3125 -9.19476,0.81315 -18.33368,1.86002 -27.375,3.75 -9.01205,0.77842 -18.07869,0.56311 -27.0625,1.78125 1.27374,1.37001 3.68098,3.99223 5.0625,6 6.45421,9.37997 7.81526,22.42121 16.3125,30 13.13658,11.71668 31.63989,16.68916 48.96875,19.78125 26.6257,4.751 56.15048,7.98748 81.09375,-2.46875 20.49788,-8.59273 38.26241,-26.23807 48.1875,-46.125 3.87329,-7.76091 3.74078,-23.58922 3.625,-28.15625 z" id="path3992" style="fill:url(#linearGradient4777);fill-opacity:1;stroke:none"/>
    <path d="m -38.435073,175.00381 a 1.2010959,5.0446033 0 1 1 -2.402192,0 1.2010959,5.0446033 0 1 1 2.402192,0 z" transform="translate(202.26456,45.641648)" id="path4009" style="fill:url(#linearGradient4779);fill-opacity:1;stroke:none"/>
    <path d="m -38.435073,175.00381 a 1.2010959,5.0446033 0 1 1 -2.402192,0 1.2010959,5.0446033 0 1 1 2.402192,0 z" transform="translate(205.26456,61.641648)" id="path4011" style="fill:url(#linearGradient4781);fill-opacity:1;stroke:none"/>
    <path d="m -38.435073,175.00381 a 1.2010959,5.0446033 0 1 1 -2.402192,0 1.2010959,5.0446033 0 1 1 2.402192,0 z" transform="translate(275.26456,61.641648)" id="path4013" style="fill:url(#linearGradient4783);fill-opacity:1;stroke:none"/>
    <path d="m -38.435073,175.00381 a 1.2010959,5.0446033 0 1 1 -2.402192,0 1.2010959,5.0446033 0 1 1 2.402192,0 z" transform="translate(265.26456,46.641648)" id="path4015" style="fill:url(#linearGradient4785);fill-opacity:1;stroke:none"/>
    <path d="m -38.435073,175.00381 a 1.2010959,5.0446033 0 1 1 -2.402192,0 1.2010959,5.0446033 0 1 1 2.402192,0 z" transform="translate(313.26456,46.641648)" id="path4017" style="fill:url(#linearGradient4787);fill-opacity:1;stroke:none"/>
    <path d="m -38.435073,175.00381 a 1.2010959,5.0446033 0 1 1 -2.402192,0 1.2010959,5.0446033 0 1 1 2.402192,0 z" transform="translate(327.26456,55.641648)" id="path4021" style="fill:url(#linearGradient4789);fill-opacity:1;stroke:none"/>
    <path d="m -38.435073,175.00381 a 1.2010959,5.0446033 0 1 1 -2.402192,0 1.2010959,5.0446033 0 1 1 2.402192,0 z" transform="translate(297.26456,62.641648)" id="path4023" style="fill:url(#linearGradient4791);fill-opacity:1;stroke:none"/>
    <path d="m -38.435073,175.00381 a 1.2010959,5.0446033 0 1 1 -2.402192,0 1.2010959,5.0446033 0 1 1 2.402192,0 z" transform="translate(295.26456,34.641648)" id="path4025" style="fill:url(#linearGradient4793);fill-opacity:1;stroke:none"/>
    <path d="m -38.435073,175.00381 a 1.2010959,5.0446033 0 1 1 -2.402192,0 1.2010959,5.0446033 0 1 1 2.402192,0 z" transform="translate(247.26456,34.641648)" id="path4027" style="fill:url(#linearGradient4795);fill-opacity:1;stroke:none"/>
    <path d="m -38.435073,175.00381 a 1.2010959,5.0446033 0 1 1 -2.402192,0 1.2010959,5.0446033 0 1 1 2.402192,0 z" transform="translate(251.26456,62.641648)" id="path4029" style="fill:url(#linearGradient4797);fill-opacity:1;stroke:none"/>
    <path d="m -38.435073,175.00381 a 1.2010959,5.0446033 0 1 1 -2.402192,0 1.2010959,5.0446033 0 1 1 2.402192,0 z" transform="translate(237.26456,67.641648)" id="path4031" style="fill:url(#linearGradient4799);fill-opacity:1;stroke:none"/>
    <path d="m -38.435073,175.00381 a 1.2010959,5.0446033 0 1 1 -2.402192,0 1.2010959,5.0446033 0 1 1 2.402192,0 z" transform="translate(226.26456,45.641648)" id="path4033" style="fill:url(#linearGradient4801);fill-opacity:1;stroke:none"/>
    <path d="m -38.435073,175.00381 a 1.2010959,5.0446033 0 1 1 -2.402192,0 1.2010959,5.0446033 0 1 1 2.402192,0 z" transform="translate(183.26456,42.641648)" id="path4035" style="fill:url(#linearGradient4803);fill-opacity:1;stroke:none"/>
    <path d="m -38.435073,175.00381 a 1.2010959,5.0446033 0 1 1 -2.402192,0 1.2010959,5.0446033 0 1 1 2.402192,0 z" transform="translate(324.26456,30.641648)" id="path4149" style="fill:url(#linearGradient4805);fill-opacity:1;stroke:none"/>
    <path d="m -38.435073,175.00381 a 1.2010959,5.0446033 0 1 1 -2.402192,0 1.2010959,5.0446033 0 1 1 2.402192,0 z" transform="translate(339.26456,29.641648)" id="path4153" style="fill:url(#linearGradient4807);fill-opacity:1;stroke:none"/>
    <path d="m 266.46875,189.5625 c -8.1002,0.56195 -16.07574,1.89651 -24.0625,3.25 l -17.25,95.875 45.09375,-1.375 43.6875,-41.78125 -31.34375,-55.84375 c -5.32349,0.80604 -10.74602,0.79166 -16.125,-0.125 z" id="path4454" style="fill:url(#linearGradient4809);fill-opacity:1;stroke:none"/>
    <path d="m 333.1249,178.5452 c -2.94335,2.6667 -8.68363,2.62112 -8.35379,7.25601 -0.086,15.99347 -0.0916,33.706 -10.64696,46.93668 -13.93561,17.8412 -29.85013,37.80493 -51.55084,46.24502 -25.73174,8.77968 -54.02917,5.56448 -80.16707,-0.44721 -22.10886,-5.82707 -46.84064,-16.83454 -60.3417,-35.88122 -7.3371,-11.1064 -11.14968,-23.83139 -13.01931,-36.87914 -5.21375,0.28524 -7.85293,0.64287 -13.066186,0.93712 2.252062,13.87457 3.96385,28.6192 13.146506,39.89469 19.88178,30.16649 52.22289,52.47272 88.43771,57.19133 25.37374,3.11786 52.63773,4.08399 76.07029,-7.63933 22.78314,-10.32627 42.32471,-28.43301 52.03301,-51.77536 7.08219,-13.95668 10.08052,-29.54292 10.51068,-45.11477 0.30495,-7.29025 -0.0866,-14.59045 -0.77647,-21.84837 -0.75863,0.37485 -1.51725,0.7497 -2.27587,1.12455 z" id="path3980" style="fill:#27341a;fill-opacity:1;stroke:none"/>
    <path d="m 97.968684,206.61663 c 0,0 2.657866,19.52361 6.871896,28.25116 23.34878,39.8369 58.68937,62.90973 100.78789,66.42837 17.78686,1.44023 36.41842,2.27848 53.4481,-3.0542 17.66227,-5.53075 34.55501,-15.63204 47.33977,-29.01468 11.6461,-12.19071 18.87161,-28.36984 24.43343,-44.28557 3.50613,-15.74751 4.5428,-30.37102 3.05416,-46.57623 l -9.16255,4.58127 c 0,0 0.824,24.5248 -3.05415,35.8866 -3.03315,8.88609 -9.24182,16.47175 -15.27089,23.66988 -9.59776,11.45872 -20.01042,22.85967 -32.83244,30.54176 -8.07814,4.83991 -17.42368,7.68479 -26.72405,9.16255 -16.59175,2.63627 -33.80018,1.86028 -50.39391,-0.76354 -13.67719,-2.16268 -27.33845,-5.98556 -39.70434,-12.21672 -10.72845,-5.40607 -21.04215,-12.39239 -29.01468,-21.37923 -5.82412,-6.56511 -9.76134,-14.74183 -12.98028,-22.90634 -2.40007,-6.08755 -4.58125,-19.08862 -4.58125,-19.08862 z" id="path3957" style="fill:#bbc773;fill-opacity:1;stroke:none"/>
    <path d="m 333.04457,178.35777 -9.10349,4.55175 c -0.005,0.59629 -0.0159,1.20571 -0.0267,1.84747 0.10267,4.49979 0.3595,24.01042 -3.07912,34.08453 -3.03315,8.88608 -9.25943,16.47094 -15.2885,23.66906 -9.59776,11.45873 -20.00409,22.84136 -32.82611,30.52346 -8.07814,4.8399 -17.42104,7.70605 -26.72141,9.18382 -16.59175,2.63626 -33.79675,1.84734 -50.39048,-0.77648 -13.67719,-2.16267 -27.34139,-5.97823 -39.70728,-12.20938 -10.72847,-5.40608 -21.05156,-12.40635 -29.02409,-21.3932 -5.82411,-6.56511 -9.74014,-14.72808 -12.95908,-22.89259 -2.40007,-6.08755 -4.57852,-19.09055 -4.57852,-19.09055 l -10.977731,0.66937 c 1.172952,6.45197 3.112311,15.44422 5.622741,20.6435 23.34879,39.8369 58.68245,62.91004 100.78096,66.42869 17.78688,1.44022 36.41315,2.25356 53.44283,-3.07913 17.66227,-5.53074 34.55338,-15.61464 47.33814,-28.99728 11.64609,-12.19071 18.88372,-28.37006 24.44554,-44.28579 2.16263,-9.71325 3.37093,-18.99562 3.64139,-28.48856 -0.0853,-3.40445 -0.26511,-6.86233 -0.58905,-10.38869 z" id="path3959" style="fill:url(#linearGradient4811);fill-opacity:1;stroke:none"/>
    <path d="m 203.70588,53.693123 c -5.13356,-2.643359 -10.56382,-5.577273 -16.33491,-5.765261 -5.32068,-0.173316 -10.91999,1.408245 -15.37402,4.323945 -3.80871,2.493261 -7.19162,6.256657 -8.6479,10.569645 -1.4866,4.402795 -1.59745,9.776158 0.48044,13.932714 3.31031,6.62186 10.13478,12.054655 17.29579,13.932713 7.53812,1.976958 15.42816,-5.415373 23.06104,-3.843507 7.83175,1.61282 14.24336,7.613422 20.17841,12.971837 10.03581,9.060751 21.9892,20.132141 25.29578,31.708931 9.9072,24.27445 8.88702,17.19264 14.37403,3.36307 4.1352,-12.13656 -7.05551,-26.0703 -13.2457,-37.954632 -3.9217,-7.529127 -8.85216,-14.694909 -14.89359,-20.658851 -9.32737,-9.207735 -20.53685,-16.580526 -32.18937,-22.580604 z" id="path4469" style="fill:#ffffff;fill-opacity:0.4357143;stroke:none;filter:url(#filter4547)"/>
  </g>
</svg>